# xmcd
#
# Track frame offsets: 
#        150
#        17897
#        31850
#        47082
#
# Disc length: 821 seconds
#
# Revision: 1
# Processed by: cddbd v1.5.2PL0 Copyright (c) Steve Scherf et al.
# Submitted via: ExactAudioCopyFreeDBPlugin 1.0
#
DISCID=28033304
DTITLE=The Wolverines - 65 Roses
DYEAR=2001
DGENRE=Country
TTITLE0=65 Roses
TTITLE1=Can Somebody Help V1
TTITLE2=Can Somebody Help V2
TTITLE3=Can Somebody Help V3
EXTD=CD Single
EXTT0=
EXTT1=
EXTT2=
EXTT3=
PLAYORDER=
